<mxfile host="app.diagrams.net" modified="2024-01-16T08:10:48.273Z" agent="Mozilla/5.0 (Windows NT 10.0; Win64; x64) AppleWebKit/537.36 (KHTML, like Gecko) Chrome/113.0.0.0 Safari/537.36 Edg/113.0.1774.7" etag="EDXWQOUz66wEcuuHl4ej" version="22.1.18" type="github">
  <diagram name="第 1 页" id="YaFEmlk2Q45c1zGLjFlW">
    <mxGraphModel dx="1984" dy="1135" grid="1" gridSize="10" guides="1" tooltips="1" connect="1" arrows="1" fold="1" page="1" pageScale="1" pageWidth="827" pageHeight="1169" math="0" shadow="0">
      <root>
        <mxCell id="0" />
        <mxCell id="1" parent="0" />
      </root>
    </mxGraphModel>
  </diagram>
</mxfile>
